<svg width="353" height="309" viewBox="0 0 353 309" fill="none" xmlns="http://www.w3.org/2000/svg">
<g clip-path="url(#clip0_2_10)">
<path d="M340.443 140.287H125.775V250.239H340.443V140.287Z" fill="#60DBFB"/>
<path d="M266.56 131.68C277.53 131.68 286.424 122.787 286.424 111.816C286.424 100.846 277.53 91.9525 266.56 91.9525C255.59 91.9525 246.696 100.846 246.696 111.816C246.696 122.787 255.59 131.68 266.56 131.68Z" fill="#FF6584"/>
<path d="M191.225 206.179H190.575V242.211H191.225V206.179Z" fill="#3F3D56"/>
<path d="M190.9 211.274C193.714 211.274 195.995 208.993 195.995 206.179C195.995 203.365 193.714 201.083 190.9 201.083C188.086 201.083 185.805 203.365 185.805 206.179C185.805 208.993 188.086 211.274 190.9 211.274Z" fill="#3F3D56"/>
<path d="M190.9 228.386C190.9 228.386 190.172 212.73 175.25 214.55L190.9 228.386Z" fill="#3F3D56"/>
<path d="M263.001 122.278H262.352V242.463H263.001V122.278Z" fill="#3F3D56"/>
<path d="M262.677 127.316C265.491 127.316 267.772 125.035 267.772 122.221C267.772 119.407 265.491 117.125 262.677 117.125C259.863 117.125 257.581 119.407 257.581 122.221C257.581 125.035 259.863 127.316 262.677 127.316Z" fill="#3F3D56"/>
<path d="M247.026 214.271C249.841 214.271 252.122 211.99 252.122 209.176C252.122 206.362 249.841 204.08 247.026 204.08C244.212 204.08 241.931 206.362 241.931 209.176C241.931 211.99 244.212 214.271 247.026 214.271Z" fill="#3F3D56"/>
<path d="M262.677 148.249C262.677 148.249 261.949 132.593 247.026 134.412L262.677 148.249Z" fill="#3F3D56"/>
<path d="M262.677 192.631C262.677 192.631 261.949 176.975 247.026 178.795L262.677 192.631Z" fill="#3F3D56"/>
<path d="M263 241.098L262.354 241.028C262.373 240.852 264.161 223.328 256.821 214.498C255.621 213.029 254.128 211.826 252.438 210.965C250.747 210.105 248.896 209.605 247.002 209.5L247.052 208.852C249.033 208.964 250.969 209.486 252.737 210.387C254.505 211.288 256.067 212.547 257.321 214.084C264.836 223.126 263.019 240.919 263 241.098Z" fill="#3F3D56"/>
<path d="M278.329 214.271C281.143 214.271 283.425 211.99 283.425 209.176C283.425 206.362 281.143 204.08 278.329 204.08C275.515 204.08 273.234 206.362 273.234 209.176C273.234 211.99 275.515 214.271 278.329 214.271Z" fill="#3F3D56"/>
<path d="M262.356 241.098C262.337 240.919 260.52 223.126 268.034 214.084C269.289 212.547 270.85 211.288 272.618 210.387C274.387 209.486 276.323 208.964 278.304 208.852L278.354 209.5C276.46 209.605 274.608 210.105 272.918 210.965C271.227 211.826 269.734 213.03 268.534 214.499C261.193 223.332 262.983 240.852 263.002 241.028L262.356 241.098Z" fill="#3F3D56"/>
<path d="M278.64 166.474C281.454 166.474 283.735 164.193 283.735 161.379C283.735 158.565 281.454 156.283 278.64 156.283C275.825 156.283 273.544 158.565 273.544 161.379C273.544 164.193 275.825 166.474 278.64 166.474Z" fill="#3F3D56"/>
<path d="M262.667 191.679C262.648 191.514 260.875 175.091 268.056 166.398C269.346 164.82 270.952 163.53 272.77 162.61C274.589 161.69 276.579 161.161 278.615 161.055L278.665 161.703C276.717 161.803 274.811 162.309 273.071 163.189C271.33 164.068 269.792 165.302 268.556 166.811C261.549 175.294 263.293 191.444 263.312 191.606L262.667 191.679Z" fill="#3F3D56"/>
<path d="M229.244 168.932H228.595V242.294H229.244V168.932Z" fill="#3F3D56"/>
<path d="M228.919 174.027C231.733 174.027 234.015 171.746 234.015 168.932C234.015 166.117 231.733 163.836 228.919 163.836C226.105 163.836 223.824 166.117 223.824 168.932C223.824 171.746 226.105 174.027 228.919 174.027Z" fill="#3F3D56"/>
<path d="M228.919 189.683C228.919 189.683 228.191 174.027 213.269 175.847L228.919 189.683Z" fill="#3F3D56"/>
<path d="M229.242 240.929L228.597 240.858C228.615 240.685 230.394 223.436 223.12 214.675C221.913 213.198 220.411 211.989 218.711 211.124C217.01 210.26 215.148 209.759 213.244 209.655L213.294 209.007C215.286 209.118 217.233 209.642 219.011 210.546C220.789 211.451 222.359 212.716 223.621 214.261C231.07 223.235 229.261 240.753 229.242 240.929Z" fill="#3F3D56"/>
<path d="M213.269 214.426C216.083 214.426 218.364 212.145 218.364 209.331C218.364 206.517 216.083 204.236 213.269 204.236C210.455 204.236 208.174 206.517 208.174 209.331C208.174 212.145 210.455 214.426 213.269 214.426Z" fill="#3F3D56"/>
<path d="M277.891 241.899H172.706V242.548H277.891V241.899Z" fill="#3F3D56"/>
<path d="M352.768 286.887H107.558V0.44519H352.768V286.887ZM108.649 285.796H351.677V1.53616H108.649V285.796Z" fill="#3F3D56"/>
<path d="M352.223 25.0823H108.104V26.1733H352.223V25.0823Z" fill="#3F3D56"/>
<path d="M341.097 17.6798C343.446 17.6798 345.351 15.7752 345.351 13.4257C345.351 11.0762 343.446 9.17163 341.097 9.17163C338.747 9.17163 336.843 11.0762 336.843 13.4257C336.843 15.7752 338.747 17.6798 341.097 17.6798Z" fill="white"/>
<path d="M341.096 17.9527C340.201 17.9527 339.326 17.6872 338.581 17.1897C337.837 16.6923 337.257 15.9853 336.914 15.1581C336.571 14.3309 336.482 13.4207 336.656 12.5426C336.831 11.6645 337.262 10.8579 337.895 10.2248C338.528 9.59166 339.335 9.16052 340.213 8.98585C341.091 8.81118 342.002 8.90083 342.829 9.24346C343.656 9.58609 344.363 10.1663 344.86 10.9108C345.358 11.6552 345.623 12.5304 345.623 13.4258C345.622 14.626 345.145 15.7767 344.296 16.6253C343.447 17.474 342.297 17.9514 341.096 17.9527ZM341.096 9.44435C340.309 9.44435 339.539 9.67787 338.884 10.1153C338.23 10.5528 337.719 11.1746 337.418 11.9021C337.117 12.6297 337.038 13.4302 337.191 14.2025C337.345 14.9748 337.724 15.6842 338.281 16.2411C338.838 16.7979 339.547 17.1771 340.32 17.3307C341.092 17.4843 341.892 17.4054 342.62 17.1041C343.347 16.8028 343.969 16.2924 344.407 15.6377C344.844 14.983 345.078 14.2132 345.078 13.4258C345.077 12.3702 344.657 11.3581 343.91 10.6117C343.164 9.86528 342.152 9.44546 341.096 9.44435Z" fill="black"/>
<path d="M339.375 11.3184L338.99 11.704L342.818 15.5328L343.204 15.1472L339.375 11.3184Z" fill="black"/>
<path d="M342.818 11.3185L338.99 15.1471L339.375 15.5328L343.204 11.7041L342.818 11.3185Z" fill="black"/>
<path d="M341.097 17.6798C343.446 17.6798 345.351 15.7752 345.351 13.4257C345.351 11.0762 343.446 9.17163 341.097 9.17163C338.747 9.17163 336.843 11.0762 336.843 13.4257C336.843 15.7752 338.747 17.6798 341.097 17.6798Z" stroke="#3F3D56" stroke-width="1.09097" stroke-miterlimit="10"/>
<path d="M341.096 17.9527C340.201 17.9527 339.326 17.6872 338.581 17.1897C337.837 16.6923 337.257 15.9853 336.914 15.1581C336.571 14.3309 336.482 13.4207 336.656 12.5426C336.831 11.6645 337.262 10.8579 337.895 10.2248C338.528 9.59166 339.335 9.16052 340.213 8.98585C341.091 8.81118 342.002 8.90083 342.829 9.24346C343.656 9.58609 344.363 10.1663 344.86 10.9108C345.358 11.6552 345.623 12.5304 345.623 13.4258C345.622 14.626 345.145 15.7767 344.296 16.6253C343.447 17.474 342.297 17.9514 341.096 17.9527ZM341.096 9.44435C340.309 9.44435 339.539 9.67787 338.884 10.1153C338.23 10.5528 337.719 11.1746 337.418 11.9021C337.117 12.6297 337.038 13.4302 337.191 14.2025C337.345 14.9748 337.724 15.6842 338.281 16.2411C338.838 16.7979 339.547 17.1771 340.32 17.3307C341.092 17.4843 341.892 17.4054 342.62 17.1041C343.347 16.8028 343.969 16.2924 344.407 15.6377C344.844 14.983 345.078 14.2132 345.078 13.4258C345.077 12.3702 344.657 11.3581 343.91 10.6117C343.164 9.86528 342.152 9.44546 341.096 9.44435Z" stroke="#3F3D56" stroke-width="1.09097" stroke-miterlimit="10"/>
<path d="M339.182 11.5114L343.011 15.34" stroke="#3F3D56" stroke-width="1.09097" stroke-miterlimit="10"/>
<path d="M339.375 11.3184L338.99 11.704L342.818 15.5328L343.204 15.1472L339.375 11.3184Z" stroke="#3F3D56" stroke-width="1.09097" stroke-miterlimit="10"/>
<path d="M343.011 11.5114L339.182 15.34" stroke="#3F3D56" stroke-width="1.09097" stroke-miterlimit="10"/>
<path d="M342.818 11.3185L338.99 15.1471L339.375 15.5328L343.204 11.7041L342.818 11.3185Z" stroke="#3F3D56" stroke-width="1.09097" stroke-miterlimit="10"/>
<path d="M163.734 10.8078H125.775V16.0436H163.734V10.8078Z" fill="#3F3D56"/>
<path d="M229.836 10.8078H191.877V16.0436H229.836V10.8078Z" fill="#3F3D56"/>
<path d="M295.938 10.8078H257.978V16.0436H295.938V10.8078Z" fill="#3F3D56"/>
<path d="M295.938 63.8202H163.734V79.5276H295.938V63.8202Z" fill="#3F3D56"/>
<path d="M220.673 274.561C222.481 274.561 223.946 273.096 223.946 271.288C223.946 269.481 222.481 268.016 220.673 268.016C218.866 268.016 217.401 269.481 217.401 271.288C217.401 273.096 218.866 274.561 220.673 274.561Z" fill="#3F3D56"/>
<path d="M229.836 274.561C231.643 274.561 233.108 273.096 233.108 271.288C233.108 269.481 231.643 268.016 229.836 268.016C228.029 268.016 226.564 269.481 226.564 271.288C226.564 273.096 228.029 274.561 229.836 274.561Z" fill="#3F3D56"/>
<path d="M238.999 274.561C240.806 274.561 242.271 273.096 242.271 271.288C242.271 269.481 240.806 268.016 238.999 268.016C237.191 268.016 235.726 269.481 235.726 271.288C235.726 273.096 237.191 274.561 238.999 274.561Z" fill="#3F3D56"/>
<path d="M114.017 99.225H75.224V141.296H114.017V99.225Z" fill="#F2F2F2"/>
<path d="M119.352 138.795H79.4675V95.6319H119.352V138.795ZM80.5585 137.704H118.261V96.7229H80.5585V137.704Z" fill="#3F3D56"/>
<path d="M92.0334 120.218C93.5422 120.218 94.7653 118.995 94.7653 117.486C94.7653 115.978 93.5422 114.754 92.0334 114.754C90.5246 114.754 89.3015 115.978 89.3015 117.486C89.3015 118.995 90.5246 120.218 92.0334 120.218Z" fill="#60DBFB"/>
<path d="M99.6828 120.218C101.192 120.218 102.415 118.995 102.415 117.486C102.415 115.978 101.192 114.754 99.6828 114.754C98.174 114.754 96.9508 115.978 96.9508 117.486C96.9508 118.995 98.174 120.218 99.6828 120.218Z" fill="#60DBFB"/>
<path d="M107.332 120.218C108.841 120.218 110.064 118.995 110.064 117.486C110.064 115.978 108.841 114.754 107.332 114.754C105.823 114.754 104.6 115.978 104.6 117.486C104.6 118.995 105.823 120.218 107.332 120.218Z" fill="#60DBFB"/>
<path d="M33.7123 293.532C33.7123 293.532 53.6396 304.406 52.8263 307.789C52.3851 309.624 41.671 306.883 31.5909 303.387C23.0903 300.44 36.3076 301.745 35.2497 300.017C32.9374 296.241 33.7123 293.532 33.7123 293.532Z" fill="#2F2E41"/>
<path d="M81.6152 290.351C81.6152 290.351 103.533 296.266 103.533 299.745C103.533 303.224 65.9601 299.745 62.829 296.614C59.698 293.482 81.6152 290.351 81.6152 290.351Z" fill="#2F2E41"/>
<path d="M44.0428 137.279L53.4359 152.934C53.4359 152.934 69.0911 193.637 72.2221 218.686C75.3532 243.734 94.1394 287.568 87.8773 293.83C81.6152 300.092 50.3049 300.44 50.3049 293.83V165.458L44.0428 137.279Z" fill="#2F2E41"/>
<path opacity="0.1" d="M44.0428 137.279L53.4359 152.934C53.4359 152.934 69.0911 193.637 72.2221 218.686C75.3532 243.734 94.1394 287.568 87.8773 293.83C81.6152 300.092 50.3049 300.44 50.3049 293.83V165.458L44.0428 137.279Z" fill="black"/>
<path d="M18.9945 124.754V137.279C18.9945 140.41 37.7807 140.41 37.7807 140.41V127.886L18.9945 124.754Z" fill="#A0616A"/>
<path d="M28.3877 131.017L19.1685 133.974C19.1685 133.974 9.60144 152.238 12.7325 161.979C15.8635 171.72 25.2566 224.948 25.2566 224.948V259.389C25.2566 259.389 6.4704 290.699 15.8635 296.961C25.2566 303.224 44.0428 309.833 47.1739 306.355C50.3049 302.876 53.4359 171.72 53.4359 171.72V152.934L50.3049 127.885L28.3877 131.017Z" fill="#2F2E41"/>
<path d="M44.6651 63.8869C54.7928 63.8869 63.003 55.6767 63.003 45.549C63.003 35.4212 54.7928 27.2111 44.6651 27.2111C34.5373 27.2111 26.3272 35.4212 26.3272 45.549C26.3272 55.6767 34.5373 63.8869 44.6651 63.8869Z" fill="#2F2E41"/>
<path d="M24.799 39.742C34.9268 39.742 43.1369 31.5318 43.1369 21.4041C43.1369 11.2763 34.9268 3.06616 24.799 3.06616C14.6713 3.06616 6.46111 11.2763 6.46111 21.4041C6.46111 31.5318 14.6713 39.742 24.799 39.742Z" fill="#2F2E41"/>
<path d="M8.98158 36.589C11.3551 38.3044 14.1049 39.4266 17.001 39.8614C19.897 40.2963 22.8551 40.0312 25.6278 39.0885C28.4004 38.1457 30.907 36.5527 32.9377 34.4426C34.9684 32.3325 36.4643 29.7668 37.3002 26.9601C36.9839 29.4753 36.1495 31.8977 34.8498 34.0743C33.5501 36.2508 31.8132 38.1343 29.7489 39.6057C27.6845 41.0771 25.3375 42.1045 22.8561 42.6231C20.3746 43.1417 17.8126 43.1402 15.3317 42.6187C12.8509 42.0971 10.5051 41.0669 8.44247 39.593C6.37987 38.1192 4.64523 36.2337 3.3481 34.0556C2.05097 31.8775 1.21952 29.4541 0.906218 26.9385C0.592917 24.4228 0.804572 21.8695 1.52785 19.4398C1.11706 22.7041 1.59234 26.0188 2.90381 29.0362C4.21528 32.0536 6.31462 34.6624 8.98158 36.589Z" fill="#2F2E41"/>
<path d="M51.0833 52.8841C57.6664 52.8841 63.003 48.7106 63.003 43.5624C63.003 38.4141 57.6664 34.2406 51.0833 34.2406C44.5003 34.2406 39.1637 38.4141 39.1637 43.5624C39.1637 48.7106 44.5003 52.8841 51.0833 52.8841Z" fill="#2F2E41"/>
<path d="M47.3478 64.9169C55.8979 64.9169 62.829 57.9857 62.829 49.4356C62.829 40.8856 55.8979 33.9544 47.3478 33.9544C38.7978 33.9544 31.8666 40.8856 31.8666 49.4356C31.8666 57.9857 38.7978 64.9169 47.3478 64.9169Z" fill="#A0616A"/>
<path d="M37.7807 59.0027C37.7807 59.0027 40.9118 65.2648 34.6497 68.3958C28.3876 71.5268 47.1739 84.051 47.1739 84.051L53.4359 62.1337L37.7807 59.0027Z" fill="#A0616A"/>
<path d="M40.9118 71.5268C40.9118 71.5268 34.6497 62.1337 31.5187 68.3958C28.3876 74.6579 12.7325 93.4441 12.7325 112.23C12.7325 131.017 12.7325 131.017 15.8635 131.017C18.9945 131.017 28.3876 127.885 31.5187 131.017C34.6497 134.148 47.1739 131.017 47.1739 131.017L50.3049 102.837C50.3049 102.837 53.4359 87.182 50.3049 84.051C47.1739 80.92 40.9118 71.5268 40.9118 71.5268Z" fill="#60DBFB"/>
<path d="M25.2566 84.051C25.2566 84.051 15.8635 131.017 25.2566 134.148C34.6497 137.279 62.829 149.455 62.829 146.324C62.829 143.193 65.9601 140.062 65.9601 140.062C65.9601 140.062 69.0911 143.193 69.0911 140.062V134.148L37.7808 121.623V90.3131C37.7808 90.3131 44.0428 74.658 37.7808 74.658C31.5187 74.658 25.2566 84.051 25.2566 84.051Z" fill="#60DBFB"/>
<path d="M65.9601 134.148C65.9601 134.148 87.5294 134.148 87.8773 140.41C88.2252 146.672 65.9601 140.062 65.9601 140.062V134.148Z" fill="#A0616A"/>
<path d="M47.7863 46.6387C55.2082 44.3007 60.1719 39.0627 58.873 34.9394C57.5741 30.8161 50.5044 29.3689 43.0825 31.7069C35.6605 34.0449 30.6969 39.2829 31.9958 43.4062C33.2947 47.5295 40.3643 48.9768 47.7863 46.6387Z" fill="#2F2E41"/>
</g>
<defs>
<clipPath id="clip0_2_10">
<rect width="352" height="307.931" fill="white" transform="translate(0.768372 0.44519)"/>
</clipPath>
</defs>
</svg>